# Blender v2.79 (sub 0) OBJ File: ''
# www.blender.org
mtllib cube3D.mtl
o Cube
v 1.001046 -0.998952 -0.998782
v 1.000000 -1.000000 1.000000
v -1.000000 -1.000000 1.000000
v -0.998952 -1.001046 -0.999076
v 0.998953 1.001046 -1.000924
v 0.999999 1.000000 1.000001
v -1.000000 1.000000 1.000000
v -1.001046 0.998952 -1.001218
vt 0.000634 0.999900
vt 0.999428 0.000100
vt 0.999816 0.999890
vt 0.000100 0.000110
vt 0.999900 0.000100
vt 0.000100 0.999900
vt 0.000100 0.000100
vt 0.999900 0.999900
vt 0.000100 0.000769
vt 0.998769 0.999377
vt 0.998769 0.000100
vt 0.000000 0.996094
vt 0.996094 0.000000
vt 0.996094 0.996094
vt 0.000000 0.000000
vt 0.999900 0.999900
vt 0.999900 0.000100
vt 0.000100 0.999900
vt 0.000000 0.000000
vt 0.996094 0.996094
vt 0.996094 0.000000
vt 0.000000 0.996094
vn 0.0010 -1.0000 -0.0005
vn -0.0000 -1.0000 0.0005
vn 1.0000 0.0000 0.0005
vn 1.0000 0.0010 -0.0005
vn -0.0000 1.0000 0.0005
vn -0.0010 1.0000 -0.0005
vn 0.0001 -0.0011 -1.0000
vn 0.0000 -0.0000 1.0000
vn -1.0000 -0.0000 -0.0005
vn -1.0000 -0.0010 0.0005
usemtl Material
s off
f 2/1/1 4/2/1 1/3/1
f 2/1/2 3/4/2 4/2/2
usemtl Material_lena.png
f 1/5/3 6/6/3 2/7/3
f 1/5/4 5/8/4 6/6/4
usemtl Material_1yellow.png
f 5/9/5 7/10/5 6/6/5
f 5/9/6 8/11/6 7/10/6
usemtl Material_5house.png
f 5/12/7 4/13/7 8/14/7
f 5/12/7 1/15/7 4/13/7
usemtl Material_2red.png
f 6/16/8 3/4/8 2/17/8
f 6/16/8 7/18/8 3/4/8
usemtl Material_3green.png
f 7/19/9 4/20/9 3/21/9
f 7/19/10 8/22/10 4/20/10
